<svg width="8" height="15" viewBox="0 0 8 15" fill="none" xmlns="http://www.w3.org/2000/svg">
<path fill-rule="evenodd" clip-rule="evenodd" d="M6.02 2.44266C6.47 2.42266 6.92 2.44266 7.37 2.44266C7.42 2.44266 7.48 2.44266 7.56 2.44266V0.102659C7.32 0.0826593 7.07 0.0426596 6.82 0.0326596C6.36 0.0126596 5.9 -0.00734011 5.44 0.00265989C4.74 0.0126599 4.07 0.192659 3.49 0.602659C2.82 1.08266 2.46 1.76266 2.32 2.55266C2.26 2.88266 2.25 3.22266 2.24 3.55266C2.23 4.07266 2.24 4.60266 2.24 5.12266V5.32266H0V7.93266H2.22V14.5027H4.94V7.94266H7.16C7.27 7.07266 7.38 6.21266 7.5 5.32266C7.32 5.32266 7.16 5.32266 7 5.32266C6.37 5.32266 4.92 5.32266 4.92 5.32266C4.92 5.32266 4.93 4.03266 4.94 3.46266C4.95 2.70266 5.4 2.46266 6.02 2.44266Z" fill="white"/>
</svg>
