<svg width="15" height="15" viewBox="0 0 15 15" fill="none" xmlns="http://www.w3.org/2000/svg">
<path d="M13.89 5.84H7.16V8.61H11C10.83 9.5 10.32 10.25 9.56 10.76C8.92 11.19 8.11 11.45 7.15 11.45C5.29 11.45 3.71 10.2 3.15 8.51H3.14L3.15 8.5C3.01 8.07 2.92 7.62 2.92 7.14C2.92 6.66 3 6.21 3.15 5.78C3.72 4.09 5.29 2.84 7.15 2.84C8.2 2.84 9.14 3.2 9.88 3.91L11.93 1.86C10.69 0.700001 9.08 0 7.15 0C4.36 0 1.95 1.6 0.77 3.94C0.28 4.9 0 5.99 0 7.14C0 8.3 0.28 9.38 0.77 10.34V10.35C1.95 12.68 4.35 14.29 7.15 14.29C9.08 14.29 10.7 13.65 11.88 12.56C13.23 11.31 14.01 9.48 14.01 7.31C14.02 6.79 13.97 6.31 13.89 5.84Z" fill="white"/>
</svg>
