<?xml version="1.0" encoding="utf-8"?>
<!-- Generator: Adobe Illustrator 24.3.0, SVG Export Plug-In . SVG Version: 6.00 Build 0)  -->
<svg version="1.1" id="Layer_1" xmlns="http://www.w3.org/2000/svg" xmlns:xlink="http://www.w3.org/1999/xlink" x="0px" y="0px"
	 viewBox="0 0 86 85" style="enable-background:new 0 0 86 85;" xml:space="preserve">
<style type="text/css">
	.st0{fill:#D82E49;}
</style>
<path class="st0" d="M43,5.8c20.2,0,36.6,16.4,36.6,36.6c0,20.2-16.4,36.6-36.6,36.6c-20.2,0-36.6-16.4-36.6-36.6
	C6.5,22.2,22.9,5.8,43,5.8z M43,0C19.6,0,0.7,19,0.7,42.4s19,42.4,42.4,42.4s42.4-19,42.4-42.4S66.5,0,43,0z"/>
<path class="st0" d="M65.6,31.3c-0.3-2.9-1.4-5.6-3.6-7.6c-2.3-2.2-5.1-3.2-8.2-3.3c-5.3-0.3-17.8-0.5-22.2,0.2
	c-5,0.8-8.3,3.7-9.7,8.7c-1.1,3.8-0.9,21.4-0.2,25.2c0.9,5.2,3.9,8.5,9,9.8c3.5,0.9,20.9,0.8,24.8,0.2c5.2-0.8,8.5-3.9,9.8-9
	C66.3,51.5,65.9,34.8,65.6,31.3z M61.5,53.7c-0.6,3.9-3.2,6.3-7.1,6.8c-3.6,0.4-19.8,0.6-23.1-0.3c-3.2-0.9-5-3.1-5.6-6.3
	c-0.5-3.1-0.7-18.5,0-22.7c0.6-3.9,3.2-6.3,7.1-6.8c4-0.4,18.3-0.5,22.1,0.1c3.9,0.6,6.3,3.2,6.8,7.2C61.9,35.3,62,49.7,61.5,53.7z
	 M43.5,30.9c-6.3,0-11.5,5.1-11.5,11.5C32,48.8,37.1,54,43.5,54C49.8,54,55,48.8,55,42.5S49.9,30.9,43.5,30.9z M43.4,49.9
	c-4.1,0-7.4-3.4-7.4-7.5c0-4.1,3.4-7.4,7.5-7.4c4.1,0,7.4,3.4,7.4,7.5C50.9,46.6,47.5,49.9,43.4,49.9z M58.2,30.5
	c0,1.5-1.2,2.7-2.7,2.7c-1.5,0-2.7-1.2-2.7-2.7c0-1.5,1.2-2.7,2.7-2.7C57,27.8,58.2,29,58.2,30.5z"/>
<path class="st0" d="M65.6,31.3c-0.3-2.9-1.4-5.6-3.6-7.6c-2.3-2.2-5.1-3.2-8.2-3.3c-5.3-0.3-17.8-0.5-22.2,0.2
	c-5,0.8-8.3,3.7-9.7,8.7c-1.1,3.8-0.9,21.4-0.2,25.2c0.9,5.2,3.9,8.5,9,9.8c3.5,0.9,20.9,0.8,24.8,0.2c5.2-0.8,8.5-3.9,9.8-9
	C66.3,51.5,65.9,34.8,65.6,31.3z M61.5,53.7c-0.6,3.9-3.2,6.3-7.1,6.8c-3.6,0.4-19.8,0.6-23.1-0.3c-3.2-0.9-5-3.1-5.6-6.3
	c-0.5-3.1-0.7-18.5,0-22.7c0.6-3.9,3.2-6.3,7.1-6.8c4-0.4,18.3-0.5,22.1,0.1c3.9,0.6,6.3,3.2,6.8,7.2C61.9,35.3,62,49.7,61.5,53.7z
	 M43.5,30.9c-6.3,0-11.5,5.1-11.5,11.5C32,48.8,37.1,54,43.5,54C49.8,54,55,48.8,55,42.5S49.9,30.9,43.5,30.9z M43.4,49.9
	c-4.1,0-7.4-3.4-7.4-7.5c0-4.1,3.4-7.4,7.5-7.4c4.1,0,7.4,3.4,7.4,7.5C50.9,46.6,47.5,49.9,43.4,49.9z M58.2,30.5
	c0,1.5-1.2,2.7-2.7,2.7c-1.5,0-2.7-1.2-2.7-2.7c0-1.5,1.2-2.7,2.7-2.7C57,27.8,58.2,29,58.2,30.5z"/>
</svg>
