<svg width="86" height="85" viewBox="0 0 86 85" fill="none" xmlns="http://www.w3.org/2000/svg">
<path d="M43.0463 5.79195C63.1982 5.79195 79.6144 22.2082 79.6144 42.36C79.6144 62.5119 63.1982 78.9281 43.0463 78.9281C22.8945 78.9281 6.47823 62.5119 6.47823 42.36C6.47823 22.2082 22.8945 5.79195 43.0463 5.79195ZM43.0463 0C19.6386 0 0.686279 18.9523 0.686279 42.36C0.686279 65.7677 19.6386 84.7201 43.0463 84.7201C66.454 84.7201 85.4063 65.7677 85.4063 42.36C85.4063 18.9523 66.454 0 43.0463 0Z" fill="#464646"/>
<path d="M65.5628 31.2561C65.2544 28.3087 64.1234 25.7041 61.93 23.6135C59.6338 21.4201 56.7892 20.4262 53.7047 20.2891C48.4269 19.9807 35.9176 19.8093 31.5308 20.529C26.4929 21.3515 23.2028 24.2646 21.7976 29.2341C20.7352 33.0382 20.9408 50.654 21.5577 54.4239C22.4145 59.5989 25.4647 62.889 30.5712 64.2257C34.1012 65.151 51.5113 65.0139 55.4183 64.397C60.5934 63.5745 63.9177 60.5243 65.2544 55.4178C66.2825 51.4765 65.9398 34.8204 65.5628 31.2561ZM61.4502 53.7042C60.8333 57.6112 58.2629 60.0445 54.3216 60.49C50.6888 60.9013 34.5468 61.1069 31.1881 60.1816C27.9666 59.2905 26.1501 57.0628 25.6018 53.8413C25.0877 50.7568 24.9506 35.3345 25.6018 31.1876C26.1844 27.3148 28.7891 24.8815 32.6961 24.436C36.6716 23.9905 50.963 23.9562 54.8014 24.5388C58.7084 25.1557 61.1417 27.7604 61.553 31.7016C61.93 35.3345 62.0328 49.7287 61.4502 53.7042ZM43.4917 30.9477C37.1514 30.9477 31.9764 36.0884 31.9764 42.463C31.9764 48.8033 37.1171 53.9784 43.4917 53.9784C49.832 53.9784 55.0071 48.8376 55.0071 42.463C55.0071 36.0884 49.8663 30.9477 43.4917 30.9477ZM43.4232 49.8657C39.3105 49.8315 36.0204 46.4728 36.0547 42.3602C36.089 38.2476 39.4476 34.9575 43.5603 34.9917C47.6729 35.026 50.963 38.3847 50.9287 42.4973C50.8944 46.6099 47.5358 49.9343 43.4232 49.8657ZM58.1601 30.5021C58.1601 31.9758 56.9606 33.2096 55.4526 33.1753C53.9789 33.1753 52.7451 31.9758 52.7794 30.4679C52.7794 28.9942 53.9789 27.7604 55.4869 27.7947C56.9606 27.7947 58.1601 29.0284 58.1601 30.5021Z" fill="#5F5F5F"/>
<path d="M65.5628 31.2561C65.2544 28.3087 64.1234 25.7041 61.93 23.6135C59.6338 21.4201 56.7892 20.4262 53.7047 20.2891C48.4269 19.9807 35.9176 19.8093 31.5308 20.529C26.4929 21.3515 23.2028 24.2646 21.7976 29.2341C20.7352 33.0382 20.9408 50.654 21.5577 54.4239C22.4145 59.5989 25.4647 62.889 30.5712 64.2257C34.1012 65.151 51.5113 65.0139 55.4183 64.397C60.5934 63.5745 63.9177 60.5243 65.2544 55.4178C66.2825 51.4765 65.9398 34.8204 65.5628 31.2561ZM61.4502 53.7042C60.8333 57.6112 58.2629 60.0445 54.3216 60.49C50.6888 60.9013 34.5468 61.1069 31.1881 60.1816C27.9666 59.2905 26.1501 57.0628 25.6018 53.8413C25.0877 50.7568 24.9506 35.3345 25.6018 31.1876C26.1844 27.3148 28.7891 24.8815 32.6961 24.436C36.6716 23.9905 50.963 23.9562 54.8014 24.5388C58.7084 25.1557 61.1417 27.7604 61.553 31.7016C61.93 35.3345 62.0328 49.7287 61.4502 53.7042ZM43.4917 30.9477C37.1514 30.9477 31.9764 36.0884 31.9764 42.463C31.9764 48.8033 37.1171 53.9784 43.4917 53.9784C49.832 53.9784 55.0071 48.8376 55.0071 42.463C55.0071 36.0884 49.8663 30.9477 43.4917 30.9477ZM43.4232 49.8657C39.3105 49.8315 36.0204 46.4728 36.0547 42.3602C36.089 38.2476 39.4476 34.9575 43.5603 34.9917C47.6729 35.026 50.963 38.3847 50.9287 42.4973C50.8944 46.6099 47.5358 49.9343 43.4232 49.8657ZM58.1601 30.5021C58.1601 31.9758 56.9606 33.2096 55.4526 33.1753C53.9789 33.1753 52.7451 31.9758 52.7794 30.4679C52.7794 28.9942 53.9789 27.7604 55.4869 27.7947C56.9606 27.7947 58.1601 29.0284 58.1601 30.5021Z" fill="#5F5F5F"/>
</svg>
