<svg width="85" height="85" viewBox="0 0 85 85" fill="none" xmlns="http://www.w3.org/2000/svg">
<path d="M42.36 5.82622C62.5119 5.82622 78.9281 22.2424 78.9281 42.3943C78.9281 62.5462 62.5119 78.9624 42.36 78.9624C22.2082 78.9624 5.79195 62.5462 5.79195 42.3943C5.79195 22.2424 22.2082 5.82622 42.36 5.82622ZM42.36 0C18.9523 0 0 18.9523 0 42.36C0 65.7677 18.9523 84.7201 42.36 84.7201C65.7677 84.7201 84.7201 65.7677 84.7201 42.36C84.7201 18.9523 65.7677 0 42.36 0Z" fill="#565656"/>
<path d="M24.264 33.5179H32.8663V61.1411H24.264V33.5179ZM28.548 19.7749C31.2898 19.7749 33.5174 22.0026 33.5174 24.7443C33.5174 27.4861 31.2898 29.7137 28.548 29.7137C25.8063 29.7137 23.5786 27.4861 23.5786 24.7443C23.5786 22.0026 25.8063 19.7749 28.548 19.7749Z" fill="#565656"/>
<path d="M38.2471 33.5177H46.4723V37.2876H46.5751C47.7404 35.1285 50.5164 32.8323 54.6976 32.8323C63.4026 32.8323 64.9791 38.5557 64.9791 45.9927V61.1408H56.4112V47.7063C56.4112 44.4847 56.3426 40.3721 51.9558 40.3721C47.5005 40.3721 46.815 43.8678 46.815 47.4664V61.1408H38.2471V33.5177Z" fill="#565656"/>
</svg>
