<?xml version="1.0" encoding="utf-8"?>
<!-- Generator: Adobe Illustrator 24.3.0, SVG Export Plug-In . SVG Version: 6.00 Build 0)  -->
<svg version="1.1" id="Layer_1" xmlns="http://www.w3.org/2000/svg" xmlns:xlink="http://www.w3.org/1999/xlink" x="0px" y="0px"
	 viewBox="0 0 85 85" style="enable-background:new 0 0 85 85;" xml:space="preserve">
<style type="text/css">
	.st0{fill:#D82E49;}
</style>
<path class="st0" d="M42.4,5.8c20.2,0,36.6,16.4,36.6,36.6S62.5,79,42.4,79C22.2,79,5.8,62.5,5.8,42.4S22.2,5.8,42.4,5.8z M42.4,0
	C19,0,0,19,0,42.4s19,42.4,42.4,42.4s42.4-19,42.4-42.4S65.8,0,42.4,0z"/>
<path class="st0" d="M24.3,33.5h8.6v27.6h-8.6V33.5z M28.5,19.8c2.7,0,5,2.2,5,5c0,2.7-2.2,5-5,5c-2.7,0-5-2.2-5-5
	C23.6,22,25.8,19.8,28.5,19.8z"/>
<path class="st0" d="M38.2,33.5h8.2v3.8h0.1c1.2-2.2,3.9-4.5,8.1-4.5C63.4,32.8,65,38.6,65,46v15.1h-8.6V47.7c0-3.2-0.1-7.3-4.5-7.3
	c-4.5,0-5.1,3.5-5.1,7.1v13.7h-8.6V33.5z"/>
</svg>
