<svg width="227" height="49" viewBox="0 0 227 49" fill="none" xmlns="http://www.w3.org/2000/svg">
<path d="M64.05 30.9399H26.92V32.2999H64.05V30.9399Z" fill="#D82E49"/>
<path d="M35.95 47.1699H0V48.5299H35.95V47.1699Z" fill="#D82E49"/>
<path d="M23.05 21.23H8.21001L31.96 1.81L53.49 21.72H38.05V23.08H56.97L32.01 0L4.39001 22.59H23.05V21.23Z" fill="#D82E49"/>
<path d="M14.91 27.5701H13.55V39.8701H44.98V38.5101H14.91V27.5701Z" fill="#D82E49"/>
<path d="M79.4766 27.7578H76.5156V26.2031H79.4766C79.9922 26.2031 80.4089 26.1198 80.7266 25.9531C81.0443 25.7865 81.276 25.5573 81.4219 25.2656C81.5729 24.9688 81.6484 24.6302 81.6484 24.25C81.6484 23.8906 81.5729 23.5547 81.4219 23.2422C81.276 22.9245 81.0443 22.6693 80.7266 22.4766C80.4089 22.2839 79.9922 22.1875 79.4766 22.1875H77.1172V32H75.1562V20.625H79.4766C80.3568 20.625 81.1042 20.7812 81.7188 21.0938C82.3385 21.401 82.8099 21.8281 83.1328 22.375C83.4557 22.9167 83.6172 23.5365 83.6172 24.2344C83.6172 24.9688 83.4557 25.599 83.1328 26.125C82.8099 26.651 82.3385 27.0547 81.7188 27.3359C81.1042 27.6172 80.3568 27.7578 79.4766 27.7578ZM85.375 20.625H89.3984C90.263 20.625 91 20.7552 91.6094 21.0156C92.2188 21.276 92.6849 21.6615 93.0078 22.1719C93.3359 22.6771 93.5 23.3021 93.5 24.0469C93.5 24.6146 93.3958 25.1146 93.1875 25.5469C92.9792 25.9792 92.6849 26.3438 92.3047 26.6406C91.9245 26.9323 91.4714 27.1589 90.9453 27.3203L90.3516 27.6094H86.7344L86.7188 26.0547H89.4297C89.8984 26.0547 90.2891 25.9714 90.6016 25.8047C90.9141 25.638 91.1484 25.4115 91.3047 25.125C91.4661 24.8333 91.5469 24.5052 91.5469 24.1406C91.5469 23.7448 91.4688 23.401 91.3125 23.1094C91.1615 22.8125 90.9271 22.5859 90.6094 22.4297C90.2917 22.2682 89.888 22.1875 89.3984 22.1875H87.3359V32H85.375V20.625ZM91.8672 32L89.1953 26.8906L91.25 26.8828L93.9609 31.8984V32H91.8672ZM104.523 26V26.625C104.523 27.4844 104.411 28.2552 104.188 28.9375C103.964 29.6198 103.643 30.2005 103.227 30.6797C102.815 31.1589 102.32 31.526 101.742 31.7812C101.164 32.0312 100.523 32.1562 99.8203 32.1562C99.1224 32.1562 98.4844 32.0312 97.9062 31.7812C97.3333 31.526 96.8359 31.1589 96.4141 30.6797C95.9922 30.2005 95.6641 29.6198 95.4297 28.9375C95.2005 28.2552 95.0859 27.4844 95.0859 26.625V26C95.0859 25.1406 95.2005 24.3724 95.4297 23.6953C95.6589 23.013 95.9818 22.4323 96.3984 21.9531C96.8203 21.4688 97.3177 21.1016 97.8906 20.8516C98.4688 20.5964 99.1068 20.4688 99.8047 20.4688C100.508 20.4688 101.148 20.5964 101.727 20.8516C102.305 21.1016 102.802 21.4688 103.219 21.9531C103.635 22.4323 103.956 23.013 104.18 23.6953C104.409 24.3724 104.523 25.1406 104.523 26ZM102.562 26.625V25.9844C102.562 25.349 102.5 24.7891 102.375 24.3047C102.255 23.8151 102.076 23.4062 101.836 23.0781C101.602 22.7448 101.312 22.4948 100.969 22.3281C100.625 22.1562 100.237 22.0703 99.8047 22.0703C99.3724 22.0703 98.987 22.1562 98.6484 22.3281C98.3099 22.4948 98.0208 22.7448 97.7812 23.0781C97.5469 23.4062 97.3672 23.8151 97.2422 24.3047C97.1172 24.7891 97.0547 25.349 97.0547 25.9844V26.625C97.0547 27.2604 97.1172 27.8229 97.2422 28.3125C97.3672 28.8021 97.5495 29.2161 97.7891 29.5547C98.0339 29.888 98.3255 30.1406 98.6641 30.3125C99.0026 30.4792 99.388 30.5625 99.8203 30.5625C100.258 30.5625 100.646 30.4792 100.984 30.3125C101.323 30.1406 101.609 29.888 101.844 29.5547C102.078 29.2161 102.255 28.8021 102.375 28.3125C102.5 27.8229 102.562 27.2604 102.562 26.625ZM110.805 27.7578H107.844V26.2031H110.805C111.32 26.2031 111.737 26.1198 112.055 25.9531C112.372 25.7865 112.604 25.5573 112.75 25.2656C112.901 24.9688 112.977 24.6302 112.977 24.25C112.977 23.8906 112.901 23.5547 112.75 23.2422C112.604 22.9245 112.372 22.6693 112.055 22.4766C111.737 22.2839 111.32 22.1875 110.805 22.1875H108.445V32H106.484V20.625H110.805C111.685 20.625 112.432 20.7812 113.047 21.0938C113.667 21.401 114.138 21.8281 114.461 22.375C114.784 22.9167 114.945 23.5365 114.945 24.2344C114.945 24.9688 114.784 25.599 114.461 26.125C114.138 26.651 113.667 27.0547 113.047 27.3359C112.432 27.6172 111.685 27.7578 110.805 27.7578ZM124.148 30.4453V32H118.109V30.4453H124.148ZM118.664 20.625V32H116.703V20.625H118.664ZM123.359 25.375V26.9062H118.109V25.375H123.359ZM124.109 20.625V22.1875H118.109V20.625H124.109ZM125.75 20.625H129.773C130.638 20.625 131.375 20.7552 131.984 21.0156C132.594 21.276 133.06 21.6615 133.383 22.1719C133.711 22.6771 133.875 23.3021 133.875 24.0469C133.875 24.6146 133.771 25.1146 133.562 25.5469C133.354 25.9792 133.06 26.3438 132.68 26.6406C132.299 26.9323 131.846 27.1589 131.32 27.3203L130.727 27.6094H127.109L127.094 26.0547H129.805C130.273 26.0547 130.664 25.9714 130.977 25.8047C131.289 25.638 131.523 25.4115 131.68 25.125C131.841 24.8333 131.922 24.5052 131.922 24.1406C131.922 23.7448 131.844 23.401 131.688 23.1094C131.536 22.8125 131.302 22.5859 130.984 22.4297C130.667 22.2682 130.263 22.1875 129.773 22.1875H127.711V32H125.75V20.625ZM132.242 32L129.57 26.8906L131.625 26.8828L134.336 31.8984V32H132.242ZM139.977 20.625V32H138.031V20.625H139.977ZM143.547 20.625V22.1875H134.492V20.625H143.547ZM146.258 20.625L148.898 26.0547L151.539 20.625H153.711L149.883 27.8125V32H147.906V27.8125L144.078 20.625H146.258Z" fill="#333333"/>
<path d="M166.062 30.4453V32H160.352V30.4453H166.062ZM160.898 20.625V32H158.938V20.625H160.898ZM169.672 20.625V32H167.711V20.625H169.672ZM178.094 29.0703C178.094 28.8359 178.057 28.6276 177.984 28.4453C177.917 28.263 177.794 28.0964 177.617 27.9453C177.44 27.7943 177.19 27.6484 176.867 27.5078C176.549 27.362 176.143 27.2135 175.648 27.0625C175.107 26.8958 174.607 26.7109 174.148 26.5078C173.695 26.2995 173.299 26.0599 172.961 25.7891C172.622 25.513 172.359 25.1979 172.172 24.8438C171.984 24.4844 171.891 24.0703 171.891 23.6016C171.891 23.138 171.987 22.7161 172.18 22.3359C172.378 21.9557 172.656 21.6276 173.016 21.3516C173.38 21.0703 173.81 20.8542 174.305 20.7031C174.799 20.5469 175.346 20.4688 175.945 20.4688C176.789 20.4688 177.516 20.625 178.125 20.9375C178.74 21.25 179.211 21.6693 179.539 22.1953C179.872 22.7214 180.039 23.3021 180.039 23.9375H178.094C178.094 23.5625 178.013 23.2318 177.852 22.9453C177.695 22.6536 177.456 22.4245 177.133 22.2578C176.815 22.0911 176.411 22.0078 175.922 22.0078C175.458 22.0078 175.073 22.0781 174.766 22.2188C174.458 22.3594 174.229 22.5495 174.078 22.7891C173.927 23.0286 173.852 23.2995 173.852 23.6016C173.852 23.8151 173.901 24.0104 174 24.1875C174.099 24.3594 174.25 24.5208 174.453 24.6719C174.656 24.8177 174.911 24.9557 175.219 25.0859C175.526 25.2161 175.888 25.3411 176.305 25.4609C176.935 25.6484 177.484 25.8568 177.953 26.0859C178.422 26.3099 178.812 26.5651 179.125 26.8516C179.438 27.138 179.672 27.4635 179.828 27.8281C179.984 28.1875 180.062 28.5964 180.062 29.0547C180.062 29.5339 179.966 29.9661 179.773 30.3516C179.581 30.7318 179.305 31.0573 178.945 31.3281C178.591 31.5938 178.164 31.7995 177.664 31.9453C177.169 32.0859 176.617 32.1562 176.008 32.1562C175.461 32.1562 174.922 32.0833 174.391 31.9375C173.865 31.7917 173.385 31.5703 172.953 31.2734C172.521 30.9714 172.177 30.5964 171.922 30.1484C171.667 29.6953 171.539 29.1667 171.539 28.5625H173.5C173.5 28.9323 173.562 29.2474 173.688 29.5078C173.818 29.7682 173.997 29.9818 174.227 30.1484C174.456 30.3099 174.721 30.4297 175.023 30.5078C175.331 30.5859 175.659 30.625 176.008 30.625C176.466 30.625 176.849 30.5599 177.156 30.4297C177.469 30.2995 177.703 30.1172 177.859 29.8828C178.016 29.6484 178.094 29.3776 178.094 29.0703ZM186.477 20.625V32H184.531V20.625H186.477ZM190.047 20.625V22.1875H180.992V20.625H190.047ZM193.641 20.625V32H191.68V20.625H193.641ZM205.102 20.625V32H203.141L198.039 23.8516V32H196.078V20.625H198.039L203.156 28.7891V20.625H205.102ZM216.172 26.1875V30.5312C216.01 30.7448 215.758 30.9792 215.414 31.2344C215.076 31.4844 214.625 31.7005 214.062 31.8828C213.5 32.0651 212.799 32.1562 211.961 32.1562C211.247 32.1562 210.594 32.0365 210 31.7969C209.406 31.5521 208.893 31.1953 208.461 30.7266C208.034 30.2578 207.703 29.6875 207.469 29.0156C207.234 28.3385 207.117 27.5677 207.117 26.7031V25.9141C207.117 25.0547 207.224 24.2891 207.438 23.6172C207.656 22.9401 207.969 22.3672 208.375 21.8984C208.781 21.4297 209.271 21.0755 209.844 20.8359C210.422 20.5911 211.076 20.4688 211.805 20.4688C212.737 20.4688 213.508 20.625 214.117 20.9375C214.732 21.2448 215.206 21.6719 215.539 22.2188C215.872 22.7656 216.083 23.3906 216.172 24.0938H214.25C214.188 23.6979 214.065 23.3438 213.883 23.0312C213.706 22.7188 213.451 22.474 213.117 22.2969C212.789 22.1146 212.362 22.0234 211.836 22.0234C211.383 22.0234 210.984 22.1094 210.641 22.2812C210.297 22.4531 210.01 22.7057 209.781 23.0391C209.557 23.3724 209.388 23.7786 209.273 24.2578C209.159 24.737 209.102 25.2839 209.102 25.8984V26.7031C209.102 27.3281 209.167 27.8828 209.297 28.3672C209.432 28.8516 209.625 29.2604 209.875 29.5938C210.13 29.9271 210.44 30.1797 210.805 30.3516C211.169 30.5182 211.581 30.6016 212.039 30.6016C212.487 30.6016 212.854 30.5651 213.141 30.4922C213.427 30.4141 213.654 30.3229 213.82 30.2188C213.992 30.1094 214.125 30.0052 214.219 29.9062V27.6484H211.852V26.1875H216.172ZM224.328 29.0703C224.328 28.8359 224.292 28.6276 224.219 28.4453C224.151 28.263 224.029 28.0964 223.852 27.9453C223.674 27.7943 223.424 27.6484 223.102 27.5078C222.784 27.362 222.378 27.2135 221.883 27.0625C221.341 26.8958 220.841 26.7109 220.383 26.5078C219.93 26.2995 219.534 26.0599 219.195 25.7891C218.857 25.513 218.594 25.1979 218.406 24.8438C218.219 24.4844 218.125 24.0703 218.125 23.6016C218.125 23.138 218.221 22.7161 218.414 22.3359C218.612 21.9557 218.891 21.6276 219.25 21.3516C219.615 21.0703 220.044 20.8542 220.539 20.7031C221.034 20.5469 221.581 20.4688 222.18 20.4688C223.023 20.4688 223.75 20.625 224.359 20.9375C224.974 21.25 225.445 21.6693 225.773 22.1953C226.107 22.7214 226.273 23.3021 226.273 23.9375H224.328C224.328 23.5625 224.247 23.2318 224.086 22.9453C223.93 22.6536 223.69 22.4245 223.367 22.2578C223.049 22.0911 222.646 22.0078 222.156 22.0078C221.693 22.0078 221.307 22.0781 221 22.2188C220.693 22.3594 220.464 22.5495 220.312 22.7891C220.161 23.0286 220.086 23.2995 220.086 23.6016C220.086 23.8151 220.135 24.0104 220.234 24.1875C220.333 24.3594 220.484 24.5208 220.688 24.6719C220.891 24.8177 221.146 24.9557 221.453 25.0859C221.76 25.2161 222.122 25.3411 222.539 25.4609C223.169 25.6484 223.719 25.8568 224.188 26.0859C224.656 26.3099 225.047 26.5651 225.359 26.8516C225.672 27.138 225.906 27.4635 226.062 27.8281C226.219 28.1875 226.297 28.5964 226.297 29.0547C226.297 29.5339 226.201 29.9661 226.008 30.3516C225.815 30.7318 225.539 31.0573 225.18 31.3281C224.826 31.5938 224.398 31.7995 223.898 31.9453C223.404 32.0859 222.852 32.1562 222.242 32.1562C221.695 32.1562 221.156 32.0833 220.625 31.9375C220.099 31.7917 219.62 31.5703 219.188 31.2734C218.755 30.9714 218.411 30.5964 218.156 30.1484C217.901 29.6953 217.773 29.1667 217.773 28.5625H219.734C219.734 28.9323 219.797 29.2474 219.922 29.5078C220.052 29.7682 220.232 29.9818 220.461 30.1484C220.69 30.3099 220.956 30.4297 221.258 30.5078C221.565 30.5859 221.893 30.625 222.242 30.625C222.701 30.625 223.083 30.5599 223.391 30.4297C223.703 30.2995 223.938 30.1172 224.094 29.8828C224.25 29.6484 224.328 29.3776 224.328 29.0703Z" fill="#D82E49"/>
</svg>
