<svg width="14" height="13" viewBox="0 0 14 13" fill="none" xmlns="http://www.w3.org/2000/svg">
<path d="M6.20672 1.08501C6.50607 0.1637 7.80948 0.1637 8.10884 1.08501L8.91844 3.57672C9.05231 3.98874 9.43627 4.2677 9.8695 4.2677H12.4894C13.4582 4.2677 13.8609 5.50732 13.0772 6.07672L10.9576 7.61668C10.6072 7.87133 10.4605 8.32269 10.5944 8.73472L11.404 11.2264C11.7033 12.1477 10.6489 12.9139 9.86514 12.3445L7.74556 10.8045C7.39508 10.5499 6.92048 10.5499 6.56999 10.8045L4.45042 12.3445C3.6667 12.9139 2.61222 12.1477 2.91158 11.2264L3.72118 8.73472C3.85506 8.32269 3.7084 7.87133 3.35791 7.61668L1.23834 6.07672C0.454622 5.50732 0.857398 4.2677 1.82612 4.2677H4.44606C4.87929 4.2677 5.26324 3.98874 5.39712 3.57672L6.20672 1.08501Z" fill="#A6A6A6"/>
</svg>
