<svg width="14" height="13" viewBox="0 0 14 13" fill="none" xmlns="http://www.w3.org/2000/svg">
<path d="M5.89105 1.08501C6.1904 0.1637 7.49381 0.1637 7.79316 1.08501L8.60277 3.57672C8.73664 3.98874 9.1206 4.2677 9.55382 4.2677H12.1738C13.1425 4.2677 13.5453 5.50732 12.7615 6.07672L10.642 7.61668C10.2915 7.87133 10.1448 8.32269 10.2787 8.73472L11.0883 11.2264C11.3877 12.1477 10.3332 12.9139 9.54947 12.3445L7.42989 10.8045C7.0794 10.5499 6.60481 10.5499 6.25432 10.8045L4.13474 12.3445C3.35103 12.9139 2.29655 12.1477 2.5959 11.2264L3.40551 8.73472C3.53938 8.32269 3.39272 7.87133 3.04224 7.61668L0.922662 6.07672C0.138948 5.50732 0.541724 4.2677 1.51045 4.2677H4.13039C4.56361 4.2677 4.94757 3.98874 5.08144 3.57672L5.89105 1.08501Z" fill="#D82E49"/>
</svg>
